<?xml version="1.0" encoding="utf-8"?>
<!-- Generator: Adobe Illustrator 21.0.0, SVG Export Plug-In . SVG Version: 6.00 Build 0)  -->
<svg version="1.1" id="Capa_1" xmlns="http://www.w3.org/2000/svg" xmlns:xlink="http://www.w3.org/1999/xlink" x="0px" y="0px"
	 viewBox="0 0 477.2 477.2" style="enable-background:new 0 0 477.2 477.2;" xml:space="preserve">
<path d="M465.2,45.3H12c-6.6,0-12-5.4-12-12V12C0,5.4,5.4,0,12,0h453.2c6.6,0,12,5.4,12,12v21.3C477.2,39.9,471.8,45.3,465.2,45.3z"
	/>
<path d="M465.2,477.2H12c-6.6,0-12-5.4-12-12v-21.3c0-6.6,5.4-12,12-12h453.2c6.6,0,12,5.4,12,12v21.3
	C477.2,471.8,471.8,477.2,465.2,477.2z"/>
<path d="M465.2,261.2H12c-6.6,0-12-5.4-12-12v-21.3c0-6.6,5.4-12,12-12h453.2c6.6,0,12,5.4,12,12v21.3
	C477.2,255.8,471.8,261.2,465.2,261.2z"/>
</svg>
